<?xml version="1.0" encoding="iso-8859-1"?>
<!-- Generator: Adobe Illustrator 17.1.0, SVG Export Plug-In . SVG Version: 6.00 Build 0)  -->
<!DOCTYPE svg PUBLIC "-//W3C//DTD SVG 1.1//EN" "http://www.w3.org/Graphics/SVG/1.1/DTD/svg11.dtd">
<svg version="1.1" id="Capa_1" xmlns="http://www.w3.org/2000/svg" xmlns:xlink="http://www.w3.org/1999/xlink" x="0px" y="0px"
	 width="4em" height="4em" viewBox="0 0 354.646 354.646" style="enable-background:new 0 0 354.646 354.646; fill:#d8996b" xml:space="preserve">
<path id="XMLID_166_" d="M125.142,305.004c0,6.075-4.925,11-11,11H42.454c-6.075,0-11-4.925-11-11V140.056h-15.14
	c-6.075,0-11-4.925-11-11v-24.383c0-3.814,1.977-7.356,5.222-9.36L162.288,1.64c3.543-2.187,8.015-2.187,11.556,0l151.758,93.673
	c3.246,2.003,5.223,5.546,5.223,9.36v24.383c0,6.075-4.925,11-11,11h-15.141v16.269c0,6.075-4.925,11-11,11s-11-4.925-11-11v-27.269
	c0-6.075,4.925-11,11-11h15.141v-7.246L168.066,23.927L27.314,110.81v7.246h15.14c6.075,0,11,4.925,11,11v164.948h60.688
	C120.217,294.004,125.142,298.928,125.142,305.004z M349.332,196.959v146.687c0,6.075-4.925,11-11,11H154.768
	c-6.075,0-11-4.925-11-11V196.959c0-6.075,4.925-11,11-11h183.563C344.407,185.959,349.332,190.884,349.332,196.959z
	 M327.332,207.959H165.768v124.687h161.563V207.959z M190.35,301.831c1.917,1.338,4.111,1.98,6.284,1.98
	c3.474,0,6.893-1.642,9.031-4.707l12.422-17.803h56.929l12.423,17.803c3.476,4.983,10.333,6.203,15.315,2.727
	c4.981-3.477,6.202-10.333,2.726-15.315l-11.313-16.214l11.313-16.214c3.477-4.982,2.256-11.839-2.726-15.315
	c-4.985-3.478-11.841-2.256-15.315,2.727l-12.423,17.803h-56.929l-12.422-17.803c-3.477-4.982-10.333-6.205-15.315-2.727
	c-4.982,3.476-6.203,10.333-2.728,15.315l11.313,16.214l-11.313,16.214C184.147,291.498,185.368,298.355,190.35,301.831z"/>
<g>
</g>
<g>
</g>
<g>
</g>
<g>
</g>
<g>
</g>
<g>
</g>
<g>
</g>
<g>
</g>
<g>
</g>
<g>
</g>
<g>
</g>
<g>
</g>
<g>
</g>
<g>
</g>
<g>
</g>
</svg>
